<?xml version="1.0" encoding="UTF-8"?>
<svg id="Layer_2" data-name="Layer 2" xmlns="http://www.w3.org/2000/svg" viewBox="0 0 56.9 52.03">
  <defs>
    <style>
      .cls-1 {
        fill: #fff;
        stroke-width: 0px;
      }
    </style>
  </defs>
  <g id="OBJECTS">
    <g>
      <path class="cls-1" d="M42.49,27.89V0h-6.81v31.82c-.81.28-1.64.51-2.49.69V5.8h-6.81v27.04c-.85-.1-1.68-.25-2.49-.45V11.6h-6.81v17.77c-4.93-3.34-8.4-8.76-9.07-15.15-.17-1.62-.15-3.22.04-4.77-2.85,4.18-4.52,9.24-4.52,14.68,0,4.1.95,7.97,2.64,11.42-3.51-1.18-6.14-2.92-6.14-2.92,2.12,1.91,4.52,3.52,7.13,4.77h0s0,0,0,0c.48.23.96.44,1.45.65.03.01.06.02.08.03.21.09.42.17.63.25.05.02.1.04.15.06.2.07.39.15.59.22.05.02.1.04.15.05.22.08.44.15.66.22.03,0,.05.02.08.03.5.16,1.01.31,1.52.44.05.01.1.03.15.04.2.05.4.1.6.15.07.02.14.03.21.05.18.04.37.08.55.12.07.02.15.03.22.05.2.04.39.07.59.11.06.01.12.02.18.03.52.09,1.03.16,1.56.22.08,0,.15.02.23.02.18.02.37.04.55.05.09,0,.19.02.28.02.17.01.34.03.52.04.1,0,.19.01.29.02.18,0,.36.02.55.02.08,0,.17,0,.25,0,.27,0,.53.01.8.01,12.69,0,23.36-7.9,27.62-19.06-1.24,2.53-2.99,4.8-5.12,6.64Z"/>
      <path class="cls-1" d="M52.23,11.03l4.35-1.95-9.79-7.29-.65,11.96,4.71-2.11c.15,1.19.23,2.4.23,3.64,0,15.98-12.95,28.93-28.93,28.93-4.4,0-8.56-.98-12.29-2.74,4.76,6.4,12.37,10.55,20.96,10.55,14.41,0,26.09-11.68,26.09-26.09,0-5.54-1.73-10.67-4.67-14.9Z"/>
    </g>
  </g>
</svg>